<svg class="recharts-surface" width="1140" height="690" viewBox="0 0 1140 690" version="1.1"><clipPath id="recharts3-clip"><rect x="35" y="10" height="600" width="1105"></rect></clipPath><g class="recharts-cartesian-grid"><g class="recharts-cartesian-grid-horizontal"><line stroke="#ccc" fill="none" x="35" y="10" width="1105" height="600" x1="35" y1="610" x2="1140" y2="610"></line><line stroke="#ccc" fill="none" x="35" y="10" width="1105" height="600" x1="35" y1="510" x2="1140" y2="510"></line><line stroke="#ccc" fill="none" x="35" y="10" width="1105" height="600" x1="35" y1="410" x2="1140" y2="410"></line><line stroke="#ccc" fill="none" x="35" y="10" width="1105" height="600" x1="35" y1="310" x2="1140" y2="310"></line><line stroke="#ccc" fill="none" x="35" y="10" width="1105" height="600" x1="35" y1="210" x2="1140" y2="210"></line><line stroke="#ccc" fill="none" x="35" y="10" width="1105" height="600" x1="35" y1="110" x2="1140" y2="110"></line><line stroke="#ccc" fill="none" x="35" y="10" width="1105" height="600" x1="35" y1="10" x2="1140" y2="10"></line></g></g><g class="recharts-layer recharts-cartesian-axis recharts-xAxis xAxis"><g class="recharts-cartesian-axis-ticks"><g class="recharts-layer recharts-cartesian-axis-tick"><text width="1105" height="30" x="35" y="626" stroke="none" fill="#959595" font-size="13" class="recharts-text recharts-cartesian-axis-tick-value" text-anchor="middle"><tspan x="35" dy="0.71em">0</tspan></text></g><g class="recharts-layer recharts-cartesian-axis-tick"><text width="1105" height="30" x="311.25" y="626" stroke="none" fill="#959595" font-size="13" class="recharts-text recharts-cartesian-axis-tick-value" text-anchor="middle"><tspan x="311.25" dy="0.71em">15</tspan></text></g><g class="recharts-layer recharts-cartesian-axis-tick"><text width="1105" height="30" x="587.5" y="626" stroke="none" fill="#959595" font-size="13" class="recharts-text recharts-cartesian-axis-tick-value" text-anchor="middle"><tspan x="587.5" dy="0.71em">30</tspan></text></g><g class="recharts-layer recharts-cartesian-axis-tick"><text width="1105" height="30" x="863.75" y="626" stroke="none" fill="#959595" font-size="13" class="recharts-text recharts-cartesian-axis-tick-value" text-anchor="middle"><tspan x="863.75" dy="0.71em">45</tspan></text></g><g class="recharts-layer recharts-cartesian-axis-tick"><text width="1105" height="30" x="1130.8333358764648" y="626" stroke="none" fill="#959595" font-size="13" class="recharts-text recharts-cartesian-axis-tick-value" text-anchor="middle"><tspan x="1130.8333358764648" dy="0.71em">60</tspan></text></g></g><text font-size="13" x="587.5" y="665" class="recharts-text recharts-label" text-anchor="middle"><tspan x="587.5" dy="0em">OVERS</tspan></text></g><g class="recharts-layer recharts-cartesian-axis recharts-yAxis yAxis"><g class="recharts-cartesian-axis-ticks"><g class="recharts-layer recharts-cartesian-axis-tick"><text width="35" height="600" x="27" y="610" stroke="none" fill="#959595" font-size="13" class="recharts-text recharts-cartesian-axis-tick-value" text-anchor="end"><tspan x="27" dy="0.355em">0</tspan></text></g><g class="recharts-layer recharts-cartesian-axis-tick"><text width="35" height="600" x="27" y="510" stroke="none" fill="#959595" font-size="13" class="recharts-text recharts-cartesian-axis-tick-value" text-anchor="end"><tspan x="27" dy="0.355em">45</tspan></text></g><g class="recharts-layer recharts-cartesian-axis-tick"><text width="35" height="600" x="27" y="410" stroke="none" fill="#959595" font-size="13" class="recharts-text recharts-cartesian-axis-tick-value" text-anchor="end"><tspan x="27" dy="0.355em">90</tspan></text></g><g class="recharts-layer recharts-cartesian-axis-tick"><text width="35" height="600" x="27" y="310" stroke="none" fill="#959595" font-size="13" class="recharts-text recharts-cartesian-axis-tick-value" text-anchor="end"><tspan x="27" dy="0.355em">135</tspan></text></g><g class="recharts-layer recharts-cartesian-axis-tick"><text width="35" height="600" x="27" y="210" stroke="none" fill="#959595" font-size="13" class="recharts-text recharts-cartesian-axis-tick-value" text-anchor="end"><tspan x="27" dy="0.355em">180</tspan></text></g><g class="recharts-layer recharts-cartesian-axis-tick"><text width="35" height="600" x="27" y="110" stroke="none" fill="#959595" font-size="13" class="recharts-text recharts-cartesian-axis-tick-value" text-anchor="end"><tspan x="27" dy="0.355em">225</tspan></text></g><g class="recharts-layer recharts-cartesian-axis-tick"><text width="35" height="600" x="27" y="10" stroke="none" fill="#959595" font-size="13" class="recharts-text recharts-cartesian-axis-tick-value" text-anchor="end"><tspan x="27" dy="0.355em">270</tspan></text></g></g></g><g class="recharts-layer recharts-line"><path stroke="#c8a000" stroke-width="2" fill="none" width="1105" height="600" class="recharts-curve recharts-line-curve" d="M35,610C41.13888888888889,609.2592592592592,47.27777777777778,608.5185185185186,53.41666666666667,607.7777777777778C59.555555555555564,607.0370370370371,65.69444444444446,607.0370370370371,71.83333333333334,605.5555555555555C77.97222222222223,604.074074074074,84.11111111111111,582.5925925925925,90.25,581.1111111111111C96.38888888888889,579.6296296296297,102.52777777777779,580.3703703703703,108.66666666666667,578.8888888888889C114.80555555555556,577.4074074074075,120.94444444444444,560.3703703703704,127.08333333333333,558.8888888888889C133.22222222222223,557.4074074074074,139.36111111111111,558.1481481481482,145.5,556.6666666666666C151.63888888888889,555.1851851851851,157.77777777777777,553.3333333333334,163.91666666666666,547.7777777777778C170.05555555555554,542.2222222222223,176.19444444444446,524.8148148148149,182.33333333333334,523.3333333333334C188.47222222222223,521.8518518518518,194.61111111111111,522.5925925925926,200.75,521.1111111111111C206.88888888888889,519.6296296296296,213.02777777777777,507.037037037037,219.16666666666666,505.55555555555554C225.30555555555554,504.0740740740741,231.44444444444443,504.4444444444444,237.58333333333331,503.3333333333333C243.7222222222222,502.22222222222223,249.86111111111111,498.8888888888889,256,498.8888888888889C262.1388888888889,498.8888888888889,268.27777777777777,498.8888888888889,274.4166666666667,498.8888888888889C280.55555555555554,498.8888888888889,286.69444444444446,494.0740740740741,292.8333333333333,492.22222222222223C298.97222222222223,490.3703703703704,305.1111111111111,490.74074074074076,311.25,487.77777777777777C317.3888888888889,484.8148148148148,323.52777777777777,475.9259259259259,329.6666666666667,474.44444444444446C335.80555555555554,472.962962962963,341.94444444444446,472.962962962963,348.0833333333333,472.22222222222223C354.22222222222223,471.48148148148147,360.3611111111111,471.48148148148147,366.5,470C372.63888888888886,468.51851851851853,378.77777777777777,452.22222222222223,384.91666666666663,447.77777777777777C391.05555555555554,443.3333333333333,397.1944444444444,443.3333333333333,403.3333333333333,441.1111111111111C409.47222222222223,438.88888888888886,415.6111111111111,436.6666666666667,421.75,434.44444444444446C427.88888888888886,432.22222222222223,434.02777777777777,430,440.16666666666663,427.77777777777777C446.30555555555554,425.55555555555554,452.44444444444446,423.3333333333333,458.58333333333337,421.1111111111111C464.72222222222223,418.88888888888886,470.86111111111114,416.6666666666667,477,414.44444444444446C483.1388888888889,412.22222222222223,489.27777777777777,411.85185185185185,495.4166666666667,407.77777777777777C501.5555555555556,403.7037037037037,507.69444444444446,392.962962962963,513.8333333333334,390C519.9722222222223,387.037037037037,526.1111111111111,387.77777777777777,532.25,385.55555555555554C538.3888888888889,383.3333333333333,544.5277777777777,379.25925925925924,550.6666666666666,376.66666666666663C556.8055555555555,374.074074074074,562.9444444444445,372.5925925925926,569.0833333333334,370C575.2222222222223,367.4074074074074,581.3611111111111,365.18518518518516,587.5,361.1111111111111C593.6388888888889,357.037037037037,599.7777777777778,349.25925925925924,605.9166666666667,345.55555555555554C612.0555555555557,341.85185185185185,618.1944444444445,340.74074074074076,624.3333333333334,338.8888888888889C630.4722222222223,337.03703703703707,636.6111111111111,337.40740740740745,642.75,334.44444444444446C648.8888888888889,331.48148148148147,655.0277777777777,321.85185185185185,661.1666666666666,316.6666666666667C667.3055555555555,311.48148148148147,673.4444444444445,309.25925925925935,679.5833333333334,303.33333333333337C685.7222222222223,297.40740740740745,691.8611111111111,288.1481481481481,698,281.1111111111111C704.1388888888889,274.074074074074,710.2777777777778,266.2962962962963,716.4166666666667,261.1111111111111C722.5555555555555,255.92592592592595,728.6944444444445,255.92592592592587,734.8333333333333,250C740.9722222222222,244.07407407407408,747.1111111111111,231.48148148148147,753.25,225.55555555555554C759.3888888888889,219.62962962962965,765.5277777777777,217.40740740740742,771.6666666666666,214.44444444444446C777.8055555555555,211.4814814814815,783.9444444444445,209.62962962962962,790.0833333333334,207.77777777777777C796.2222222222223,205.92592592592592,802.3611111111111,206.29629629629628,808.5,203.33333333333331C814.6388888888889,200.37037037037035,820.7777777777777,193.7037037037037,826.9166666666666,187.77777777777777C833.0555555555555,181.85185185185185,839.1944444444443,172.96296296296293,845.3333333333333,167.77777777777777C851.4722222222222,162.59259259259255,857.6111111111111,160.00000000000003,863.75,156.66666666666669C869.8888888888889,153.33333333333334,876.0277777777778,152.962962962963,882.1666666666667,147.77777777777777C888.3055555555557,142.59259259259258,894.4444444444445,132.96296296296296,900.5833333333334,125.55555555555554C906.7222222222223,118.14814814814814,912.8611111111111,108.88888888888886,919,103.33333333333331C925.1388888888889,97.77777777777777,931.2777777777777,99.25925925925928,937.4166666666666,92.22222222222229C943.5555555555555,85.18518518518525,949.6944444444445,73.14814814814817,955.8333333333334,61.111111111111086"></path><g class="recharts-layer recharts-line-dots"><g><circle cx="237.58333333333331" cy="503.3333333333333" r="12" fill="#c8a000"></circle><text x="237.58333333333331" y="504.3333333333333" fill="#fff" text-anchor="middle" dominant-baseline="middle" style="font-weight: bold; font-size: 12px;">W</text></g><g><circle cx="256" cy="498.8888888888889" r="12" fill="#c8a000"></circle><text x="256" y="499.8888888888889" fill="#fff" text-anchor="middle" dominant-baseline="middle" style="font-weight: bold; font-size: 12px;">W</text></g><g><circle cx="458.58333333333337" cy="421.1111111111111" r="12" fill="#c8a000"></circle><text x="458.58333333333337" y="422.1111111111111" fill="#fff" text-anchor="middle" dominant-baseline="middle" style="font-weight: bold; font-size: 12px;">W</text></g><g><circle cx="808.5" cy="203.33333333333331" r="12" fill="#c8a000"></circle><text x="808.5" y="204.33333333333331" fill="#fff" text-anchor="middle" dominant-baseline="middle" style="font-weight: bold; font-size: 12px;">W</text></g><g><circle cx="919" cy="103.33333333333331" r="12" fill="#c8a000"></circle><text x="919" y="104.33333333333331" fill="#fff" text-anchor="middle" dominant-baseline="middle" style="font-weight: bold; font-size: 12px;">W</text></g></g></g><g class="recharts-layer recharts-line"><path stroke="#363636" stroke-width="2" fill="none" width="1105" height="600" class="recharts-curve recharts-line-curve" d="M35,610C41.13888888888889,609.6296296296297,47.27777777777778,609.2592592592592,53.41666666666667,607.7777777777778C59.555555555555564,606.2962962962964,65.69444444444446,601.1111111111112,71.83333333333334,598.8888888888889C77.97222222222223,596.6666666666667,84.11111111111111,595.5555555555555,90.25,594.4444444444445C96.38888888888889,593.3333333333334,102.52777777777779,593.7037037037037,108.66666666666667,592.2222222222222C114.80555555555556,590.7407407407406,120.94444444444444,572.2222222222222,127.08333333333333,572.2222222222222C133.22222222222223,572.2222222222222,139.36111111111111,572.2222222222222,145.5,572.2222222222222C151.63888888888889,572.2222222222222,157.77777777777777,561.1111111111111,163.91666666666666,561.1111111111111C170.05555555555554,561.1111111111111,176.19444444444446,561.1111111111111,182.33333333333334,561.1111111111111C188.47222222222223,561.1111111111111,194.61111111111111,548.8888888888889,200.75,543.3333333333334C206.88888888888889,537.7777777777778,213.02777777777777,531.851851851852,219.16666666666666,527.7777777777778C225.30555555555554,523.7037037037037,231.44444444444443,522.5925925925926,237.58333333333331,518.8888888888889C243.7222222222222,515.1851851851852,249.86111111111111,509.25925925925924,256,505.55555555555554C262.1388888888889,501.85185185185185,268.27777777777777,498.8888888888889,274.4166666666667,496.6666666666667C280.55555555555554,494.44444444444446,286.69444444444446,495.1851851851852,292.8333333333333,492.22222222222223C298.97222222222223,489.25925925925924,305.1111111111111,475.9259259259259,311.25,470C317.3888888888889,464.0740740740741,323.52777777777777,461.11111111111114,329.6666666666667,456.6666666666667C335.80555555555554,452.22222222222223,341.94444444444446,448.5185185185185,348.0833333333333,443.3333333333333C354.22222222222223,438.1481481481481,360.3611111111111,430.3703703703704,366.5,425.55555555555554C372.63888888888886,420.74074074074076,378.77777777777777,417.03703703703707,384.91666666666663,414.44444444444446C391.05555555555554,411.85185185185185,397.1944444444444,411.85185185185185,403.3333333333333,410C409.47222222222223,408.14814814814815,415.6111111111111,406.29629629629636,421.75,403.33333333333337C427.88888888888886,400.3703703703704,434.02777777777777,395.18518518518516,440.16666666666663,392.2222222222222C446.30555555555554,389.2592592592592,452.44444444444446,387.4074074074074,458.58333333333337,385.55555555555554C464.72222222222223,383.7037037037037,470.86111111111114,382.2222222222222,477,381.1111111111111C483.1388888888889,380,489.27777777777777,379.6296296296297,495.4166666666667,378.8888888888889C501.5555555555556,378.14814814814815,507.69444444444446,378.1481481481481,513.8333333333334,376.66666666666663C519.9722222222223,375.18518518518516,526.1111111111111,371.85185185185185,532.25,370C538.3888888888889,368.14814814814815,544.5277777777777,368.1481481481481,550.6666666666666,365.55555555555554C556.8055555555555,362.96296296296293,562.9444444444445,357.77777777777777,569.0833333333334,354.44444444444446C575.2222222222223,351.11111111111114,581.3611111111111,345.55555555555554,587.5,345.55555555555554C593.6388888888889,345.55555555555554,599.7777777777778,345.55555555555554,605.9166666666667,345.55555555555554C612.0555555555557,345.55555555555554,618.1944444444445,328.5185185185185,624.3333333333334,323.3333333333333C630.4722222222223,318.14814814814815,636.6111111111111,318.51851851851853,642.75,314.44444444444446C648.8888888888889,310.3703703703704,655.0277777777777,300.37037037037044,661.1666666666666,298.8888888888889C667.3055555555555,297.4074074074074,673.4444444444445,298.1481481481481,679.5833333333334,296.66666666666663C685.7222222222223,295.18518518518516,691.8611111111111,292.22222222222223,698,290C704.1388888888889,287.77777777777777,710.2777777777778,286.29629629629636,716.4166666666667,283.33333333333337C722.5555555555555,280.37037037037044,728.6944444444445,276.2962962962963,734.8333333333333,272.22222222222223"></path><g class="recharts-layer recharts-line-dots"><g><circle cx="145.5" cy="572.2222222222222" r="12" fill="#363636"></circle><text x="145.5" y="573.2222222222222" fill="#fff" text-anchor="middle" dominant-baseline="middle" style="font-weight: bold; font-size: 12px;">W</text></g><g><circle cx="200.75" cy="543.3333333333334" r="12" fill="#363636"></circle><text x="200.75" y="544.3333333333334" fill="#fff" text-anchor="middle" dominant-baseline="middle" style="font-weight: bold; font-size: 12px;">W</text></g><g><circle cx="421.75" cy="403.33333333333337" r="12" fill="#363636"></circle><text x="421.75" y="404.33333333333337" fill="#fff" text-anchor="middle" dominant-baseline="middle" style="font-weight: bold; font-size: 12px;">W</text></g><g><circle cx="458.58333333333337" cy="385.55555555555554" r="12" fill="#363636"></circle><text x="458.58333333333337" y="386.55555555555554" fill="#fff" text-anchor="middle" dominant-baseline="middle" style="font-weight: bold; font-size: 12px;">W</text></g><g><circle cx="605.9166666666667" cy="345.55555555555554" r="12" fill="#363636"></circle><text x="605.9166666666667" y="346.55555555555554" fill="#fff" text-anchor="middle" dominant-baseline="middle" style="font-weight: bold; font-size: 12px;">W</text></g><g><circle cx="642.75" cy="314.44444444444446" r="12" fill="#363636"></circle><text x="642.75" y="315.44444444444446" fill="#fff" text-anchor="middle" dominant-baseline="middle" style="font-weight: bold; font-size: 12px;">W</text></g><g><circle cx="679.5833333333334" cy="296.66666666666663" r="12" fill="#363636"></circle><text x="679.5833333333334" y="297.66666666666663" fill="#fff" text-anchor="middle" dominant-baseline="middle" style="font-weight: bold; font-size: 12px;">W</text></g><g><circle cx="734.8333333333333" cy="272.22222222222223" r="12" fill="#363636"></circle><text x="734.8333333333333" y="273.22222222222223" fill="#fff" text-anchor="middle" dominant-baseline="middle" style="font-weight: bold; font-size: 12px;">W</text></g></g></g></svg>
